<?xml version="1.0" encoding="UTF-8"?>
<svg xmlns="http://www.w3.org/2000/svg" xmlns:xlink="http://www.w3.org/1999/xlink"
     width="1792" height="1138" viewBox="0 0 1792 1138">
<defs>
</defs>
<style>@media (prefers-color-scheme: dark) {
    .nf-metro-section-label { fill: #d0d0d0; }
    .nf-metro-section-num-circle { fill: #777777; }
    .nf-metro-title { fill: #ffffff; }
}
</style>
<text x="60.0" y="30.0" font-size="26.0" fill="#111111" font-family="'Helvetica Neue', Helvetica, Arial, sans-serif" font-weight="bold" class="nf-metro-title">GABI Pipeline (assembly)</text>
<rect x="200.0" y="85.0" width="470.5" height="150.0" rx="8" ry="8" fill="#ededed" stroke="#e6e6e6" stroke-width="1.0" />
<circle cx="211.0" cy="70.0" r="11" fill="#333333" class="nf-metro-section-num-circle" />
<text x="211.0" y="70.0" font-size="12" fill="#ffffff" font-family="'Helvetica Neue', Helvetica, Arial, sans-serif" font-weight="bold" text-anchor="middle" dy="0.3em">1</text>
<text x="227.0" y="70.0" font-size="17.0" fill="#666666" font-family="'Helvetica Neue', Helvetica, Arial, sans-serif" font-weight="bold" dy="0.3em" class="nf-metro-section-label">Illumina QC</text>
<rect x="831.0" y="85.0" width="235.5" height="110.0" rx="8" ry="8" fill="#ededed" stroke="#e6e6e6" stroke-width="1.0" />
<circle cx="842.0" cy="70.0" r="11" fill="#333333" class="nf-metro-section-num-circle" />
<text x="842.0" y="70.0" font-size="12" fill="#ffffff" font-family="'Helvetica Neue', Helvetica, Arial, sans-serif" font-weight="bold" text-anchor="middle" dy="0.3em">2</text>
<text x="858.0" y="70.0" font-size="17.0" fill="#666666" font-family="'Helvetica Neue', Helvetica, Arial, sans-serif" font-weight="bold" dy="0.3em" class="nf-metro-section-label">Illumina Assembly</text>
<rect x="200.0" y="285.0" width="581.0" height="216.11651689888373" rx="8" ry="8" fill="#ededed" stroke="#e6e6e6" stroke-width="1.0" />
<circle cx="211.0" cy="270.0" r="11" fill="#333333" class="nf-metro-section-num-circle" />
<text x="211.0" y="270.0" font-size="12" fill="#ffffff" font-family="'Helvetica Neue', Helvetica, Arial, sans-serif" font-weight="bold" text-anchor="middle" dy="0.3em">3</text>
<text x="227.0" y="270.0" font-size="17.0" fill="#666666" font-family="'Helvetica Neue', Helvetica, Arial, sans-serif" font-weight="bold" dy="0.3em" class="nf-metro-section-label">Nanopore QC</text>
<rect x="831.0" y="285.0" width="721.5" height="136.11651689888373" rx="8" ry="8" fill="#ededed" stroke="#e6e6e6" stroke-width="1.0" />
<circle cx="842.0" cy="270.0" r="11" fill="#333333" class="nf-metro-section-num-circle" />
<text x="842.0" y="270.0" font-size="12" fill="#ffffff" font-family="'Helvetica Neue', Helvetica, Arial, sans-serif" font-weight="bold" text-anchor="middle" dy="0.3em">4</text>
<text x="858.0" y="270.0" font-size="17.0" fill="#666666" font-family="'Helvetica Neue', Helvetica, Arial, sans-serif" font-weight="bold" dy="0.3em" class="nf-metro-section-label">Nanopore Assembly</text>
<rect x="188.0" y="551.1165168988837" width="470.5" height="190.0" rx="8" ry="8" fill="#ededed" stroke="#e6e6e6" stroke-width="1.0" />
<circle cx="199.0" cy="536.1165168988837" r="11" fill="#333333" class="nf-metro-section-num-circle" />
<text x="199.0" y="536.1165168988837" font-size="12" fill="#ffffff" font-family="'Helvetica Neue', Helvetica, Arial, sans-serif" font-weight="bold" text-anchor="middle" dy="0.3em">5</text>
<text x="215.0" y="536.1165168988837" font-size="17.0" fill="#666666" font-family="'Helvetica Neue', Helvetica, Arial, sans-serif" font-weight="bold" dy="0.3em" class="nf-metro-section-label">Pacbio QC</text>
<rect x="831.0" y="551.1165168988837" width="491.5" height="169.0" rx="8" ry="8" fill="#ededed" stroke="#e6e6e6" stroke-width="1.0" />
<circle cx="842.0" cy="536.1165168988837" r="11" fill="#333333" class="nf-metro-section-num-circle" />
<text x="842.0" y="536.1165168988837" font-size="12" fill="#ffffff" font-family="'Helvetica Neue', Helvetica, Arial, sans-serif" font-weight="bold" text-anchor="middle" dy="0.3em">6</text>
<text x="858.0" y="536.1165168988837" font-size="17.0" fill="#666666" font-family="'Helvetica Neue', Helvetica, Arial, sans-serif" font-weight="bold" dy="0.3em" class="nf-metro-section-label">Pacbio Assembly</text>
<rect x="831.0" y="791.1165168988837" width="160.0" height="77.0" rx="8" ry="8" fill="#ededed" stroke="#e6e6e6" stroke-width="1.0" />
<circle cx="842.0" cy="776.1165168988837" r="11" fill="#333333" class="nf-metro-section-num-circle" />
<text x="842.0" y="776.1165168988837" font-size="12" fill="#ffffff" font-family="'Helvetica Neue', Helvetica, Arial, sans-serif" font-weight="bold" text-anchor="middle" dy="0.3em">7</text>
<text x="858.0" y="776.1165168988837" font-size="17.0" fill="#666666" font-family="'Helvetica Neue', Helvetica, Arial, sans-serif" font-weight="bold" dy="0.3em" class="nf-metro-section-label">Read Taxonomy</text>
<rect x="1632.5" y="85.0" width="100.0" height="77.0" rx="8" ry="8" fill="#ededed" stroke="#e6e6e6" stroke-width="1.0" />
<circle cx="1643.5" cy="70.0" r="11" fill="#333333" class="nf-metro-section-num-circle" />
<text x="1643.5" y="70.0" font-size="12" fill="#ffffff" font-family="'Helvetica Neue', Helvetica, Arial, sans-serif" font-weight="bold" text-anchor="middle" dy="0.3em">8</text>
<text x="1659.5" y="70.0" font-size="17.0" fill="#666666" font-family="'Helvetica Neue', Helvetica, Arial, sans-serif" font-weight="bold" dy="0.3em" class="nf-metro-section-label">Collect</text>
<path d="M831.0,835.1165168988837 L881.0,835.1165168988837" stroke="#c64b1a" stroke-width="4.0" stroke-linecap="round" />
<path d="M831.0,832.1165168988837 L881.0,832.1165168988837" stroke="#a21cc3" stroke-width="4.0" stroke-linecap="round" />
<path d="M831.0,829.1165168988837 L881.0,829.1165168988837" stroke="#e5e536" stroke-width="4.0" stroke-linecap="round" />
<path d="M881.0,826.1165168988837 L941.0,826.1165168988837" stroke="#2196F3" stroke-width="4.0" stroke-linecap="round" />
<path d="M600.5,712.1165168988837 L658.5,712.1165168988837" stroke="#963914" stroke-width="4.0" stroke-linecap="round" />
<path d="M658.5,712.1165168988837 L668.5,712.1165168988837" stroke="#963914" stroke-width="4.0" stroke-linecap="round" />
<path d="M668.5,712.1165168988837 L673.0,712.1165168988837 Q686.0,712.1165168988837,686.0,699.1165168988837 L686.0,637.1165168988837 Q686.0,627.1165168988837,696.0,627.1165168988837 L831.0,627.1165168988837" stroke="#963914" stroke-width="4.0" fill="none" stroke-linecap="round" stroke-linejoin="round" />
<path d="M232.5,709.1165168988837 L255.0,709.1165168988837 Q265.0,709.1165168988837,271.0,701.1165168988837 L289.0,677.1165168988837 Q295.0,669.1165168988837,305.0,669.1165168988837 L310.0,669.1165168988837" stroke="#c64b1a" stroke-width="4.0" fill="none" stroke-linecap="round" stroke-linejoin="round" />
<path d="M200.0,709.1165168988837 L232.5,709.1165168988837" stroke="#c64b1a" stroke-width="4.0" stroke-linecap="round" />
<path d="M600.5,709.1165168988837 L658.5,709.1165168988837" stroke="#c64b1a" stroke-width="4.0" stroke-linecap="round" />
<path d="M600.5,709.1165168988837 L658.5,709.1165168988837" stroke="#c64b1a" stroke-width="4.0" stroke-linecap="round" />
<path d="M658.5,709.1165168988837 L668.5,709.1165168988837" stroke="#c64b1a" stroke-width="4.0" stroke-linecap="round" />
<path d="M668.5,709.1165168988837 L673.0,709.1165168988837 Q683.0,709.1165168988837,683.0,699.1165168988837 L683.0,637.1165168988837 Q683.0,624.1165168988837,696.0,624.1165168988837 L831.0,624.1165168988837" stroke="#c64b1a" stroke-width="4.0" fill="none" stroke-linecap="round" stroke-linejoin="round" />
<path d="M668.5,709.1165168988837 L671.5,709.1165168988837 Q681.5,709.1165168988837,681.5,719.1165168988837 L681.5,825.1165168988837 Q681.5,835.1165168988837,691.5,835.1165168988837 L831.0,835.1165168988837" stroke="#c64b1a" stroke-width="4.0" fill="none" stroke-linecap="round" stroke-linejoin="round" />
<path d="M1176.5,687.1165168988837 L1196.5,687.1165168988837 Q1206.5,687.1165168988837,1210.011234415884,677.7532251231933 L1232.988765584116,616.4798086745741 Q1236.5,607.1165168988837,1246.5,607.1165168988837 L1272.5,607.1165168988837" stroke="#963914" stroke-width="4.0" fill="none" stroke-linecap="round" stroke-linejoin="round" />
<path d="M310.0,672.1165168988837 L340.5,672.1165168988837 Q350.5,672.1165168988837,356.5,664.1165168988837 L374.5,640.1165168988837 Q380.5,632.1165168988837,390.5,632.1165168988837 L426.5,632.1165168988837" stroke="#963914" stroke-width="4.0" fill="none" stroke-linecap="round" stroke-linejoin="round" />
<path d="M310.0,669.1165168988837 L340.5,669.1165168988837 Q350.5,669.1165168988837,356.5,677.1165168988837 L374.5,701.1165168988837 Q380.5,709.1165168988837,390.5,709.1165168988837 L600.5,709.1165168988837" stroke="#c64b1a" stroke-width="4.0" fill="none" stroke-linecap="round" stroke-linejoin="round" />
<path d="M310.0,666.1165168988837 L340.5,666.1165168988837 Q350.5,666.1165168988837,354.0112344158839,656.7532251231933 L376.9887655841161,595.4798086745741 Q380.5,586.1165168988837,390.5,586.1165168988837 L426.5,586.1165168988837" stroke="#2196F3" stroke-width="4.0" fill="none" stroke-linecap="round" stroke-linejoin="round" />
<path d="M1176.5,647.1165168988837 L1196.5,647.1165168988837 Q1206.5,647.1165168988837,1212.5,639.1165168988837 L1230.5,615.1165168988837 Q1236.5,607.1165168988837,1246.5,607.1165168988837 L1272.5,607.1165168988837" stroke="#963914" stroke-width="4.0" fill="none" stroke-linecap="round" stroke-linejoin="round" />
<path d="M917.0,647.1165168988837 L952.0,647.1165168988837 Q962.0,647.1165168988837,968.0,655.1165168988837 L986.0,679.1165168988837 Q992.0,687.1165168988837,1002.0,687.1165168988837 L1176.5,687.1165168988837" stroke="#963914" stroke-width="4.0" fill="none" stroke-linecap="round" stroke-linejoin="round" />
<path d="M917.0,647.1165168988837 L1176.5,647.1165168988837" stroke="#963914" stroke-width="4.0" stroke-linecap="round" />
<path d="M426.5,632.1165168988837 L486.5,632.1165168988837" stroke="#963914" stroke-width="4.0" stroke-linecap="round" />
<path d="M486.5,632.1165168988837 L506.5,632.1165168988837 Q516.5,632.1165168988837,520.0112344158839,641.4798086745741 L542.9887655841161,702.7532251231933 Q546.5,712.1165168988837,556.5,712.1165168988837 L600.5,712.1165168988837" stroke="#963914" stroke-width="4.0" fill="none" stroke-linecap="round" stroke-linejoin="round" />
<path d="M831.0,627.1165168988837 L836.0,627.1165168988837 Q846.0,627.1165168988837,854.3205029433784,632.6635188611359 L867.6794970566216,641.5695149366314 Q876.0,647.1165168988837,886.0,647.1165168988837 L917.0,647.1165168988837" stroke="#963914" stroke-width="4.0" fill="none" stroke-linecap="round" stroke-linejoin="round" />
<path d="M831.0,624.1165168988837 L836.0,624.1165168988837 Q846.0,624.1165168988837,854.3205029433784,618.5695149366314 L867.6794970566216,609.6635188611359 Q876.0,604.1165168988837,886.0,604.1165168988837 L917.0,604.1165168988837" stroke="#c64b1a" stroke-width="4.0" fill="none" stroke-linecap="round" stroke-linejoin="round" />
<path d="M1022.0,607.1165168988837 L1061.5,607.1165168988837 Q1071.5,607.1165168988837,1077.5,615.1165168988837 L1095.5,639.1165168988837 Q1101.5,647.1165168988837,1111.5,647.1165168988837 L1176.5,647.1165168988837" stroke="#963914" stroke-width="4.0" fill="none" stroke-linecap="round" stroke-linejoin="round" />
<path d="M1022.0,607.1165168988837 L1061.5,607.1165168988837 Q1071.5,607.1165168988837,1075.011234415884,616.4798086745741 L1097.988765584116,677.7532251231933 Q1101.5,687.1165168988837,1111.5,687.1165168988837 L1176.5,687.1165168988837" stroke="#963914" stroke-width="4.0" fill="none" stroke-linecap="round" stroke-linejoin="round" />
<path d="M917.0,604.1165168988837 L1022.0,604.1165168988837" stroke="#c64b1a" stroke-width="4.0" stroke-linecap="round" />
<path d="M1022.0,604.1165168988837 L1272.5,604.1165168988837" stroke="#c64b1a" stroke-width="4.0" stroke-linecap="round" />
<path d="M1272.5,604.1165168988837 L1322.5,604.1165168988837" stroke="#c64b1a" stroke-width="4.0" stroke-linecap="round" />
<path d="M1322.5,604.1165168988837 L1581.0,604.1165168988837 Q1594.0,604.1165168988837,1594.0,591.1165168988837 L1594.0,139.0 Q1594.0,129.0,1604.0,129.0 L1632.5,129.0" stroke="#c64b1a" stroke-width="4.0" fill="none" stroke-linecap="round" stroke-linejoin="round" />
<path d="M286.0,472.11651689888373 L310.5,472.11651689888373 Q320.5,472.11651689888373,326.5,464.11651689888373 L344.5,440.11651689888373 Q350.5,432.11651689888373,360.5,432.11651689888373 L382.0,432.11651689888373" stroke="#7f1699" stroke-width="4.0" fill="none" stroke-linecap="round" stroke-linejoin="round" />
<path d="M200.0,452.11651689888373 L205.0,452.11651689888373 Q215.0,452.11651689888373,223.32050294337844,457.663518861136 L236.67949705662156,466.56951493663144 Q245.0,472.11651689888373,255.0,472.11651689888373 L286.0,472.11651689888373" stroke="#7f1699" stroke-width="4.0" fill="none" stroke-linecap="round" stroke-linejoin="round" />
<path d="M200.0,449.11651689888373 L205.0,449.11651689888373 Q215.0,449.11651689888373,223.32050294337844,443.56951493663144 L236.67949705662156,434.663518861136 Q245.0,429.11651689888373,255.0,429.11651689888373 L286.0,429.11651689888373" stroke="#a21cc3" stroke-width="4.0" fill="none" stroke-linecap="round" stroke-linejoin="round" />
<path d="M731.0,432.11651689888373 L781.0,432.11651689888373" stroke="#7f1699" stroke-width="4.0" stroke-linecap="round" />
<path d="M781.0,432.11651689888373 L791.0,432.11651689888373" stroke="#7f1699" stroke-width="4.0" stroke-linecap="round" />
<path d="M791.0,432.11651689888373 L795.5,432.11651689888373 Q808.5,432.11651689888373,808.5,419.11651689888373 L808.5,362.0 Q808.5,352.0,818.5,352.0 L831.0,352.0" stroke="#7f1699" stroke-width="4.0" fill="none" stroke-linecap="round" stroke-linejoin="round" />
<path d="M382.0,429.11651689888373 L387.0,429.11651689888373 Q397.0,429.11651689888373,403.0,421.11651689888373 L421.0,397.11651689888373 Q427.0,389.11651689888373,437.0,389.11651689888373 L442.0,389.11651689888373" stroke="#a21cc3" stroke-width="4.0" fill="none" stroke-linecap="round" stroke-linejoin="round" />
<path d="M731.0,429.11651689888373 L781.0,429.11651689888373" stroke="#a21cc3" stroke-width="4.0" stroke-linecap="round" />
<path d="M731.0,429.11651689888373 L781.0,429.11651689888373" stroke="#a21cc3" stroke-width="4.0" stroke-linecap="round" />
<path d="M781.0,429.11651689888373 L791.0,429.11651689888373" stroke="#a21cc3" stroke-width="4.0" stroke-linecap="round" />
<path d="M791.0,429.11651689888373 L795.5,429.11651689888373 Q805.5,429.11651689888373,805.5,419.11651689888373 L805.5,362.0 Q805.5,349.0,818.5,349.0 L831.0,349.0" stroke="#a21cc3" stroke-width="4.0" fill="none" stroke-linecap="round" stroke-linejoin="round" />
<path d="M791.0,429.11651689888373 L794.0,429.11651689888373 Q804.0,429.11651689888373,804.0,439.11651689888373 L804.0,822.1165168988837 Q804.0,832.1165168988837,814.0,832.1165168988837 L831.0,832.1165168988837" stroke="#a21cc3" stroke-width="4.0" fill="none" stroke-linecap="round" stroke-linejoin="round" />
<path d="M286.0,429.11651689888373 L382.0,429.11651689888373" stroke="#a21cc3" stroke-width="4.0" stroke-linecap="round" />
<path d="M570.5,406.0 L630.5,406.0" stroke="#7f1699" stroke-width="4.0" stroke-linecap="round" />
<path d="M630.5,406.0 L650.5,406.0 Q660.5,406.0,668.0423741105224,412.56601803050535 L682.9576258894776,425.5504988683784 Q690.5,432.11651689888373,700.5,432.11651689888373 L731.0,432.11651689888373" stroke="#7f1699" stroke-width="4.0" fill="none" stroke-linecap="round" stroke-linejoin="round" />
<path d="M1216.5,398.11651689888373 L1233.5,398.11651689888373 Q1243.5,398.11651689888373,1251.0423741105224,391.5504988683784 L1265.9576258894776,378.56601803050535 Q1273.5,372.0,1283.5,372.0 L1366.5,372.0" stroke="#7f1699" stroke-width="4.0" fill="none" stroke-linecap="round" stroke-linejoin="round" />
<path d="M1216.5,398.11651689888373 L1233.5,398.11651689888373 Q1243.5,398.11651689888373,1247.6319829777535,389.01010615306546 L1269.3680170222465,341.10641074581827 Q1273.5,332.0,1283.5,332.0 L1502.5,332.0" stroke="#7f1699" stroke-width="4.0" fill="none" stroke-linecap="round" stroke-linejoin="round" />
<path d="M442.0,392.11651689888373 L472.5,392.11651689888373 Q482.5,392.11651689888373,491.57529242784784,396.3164058675409 L503.42470757215216,401.80011103134285 Q512.5,406.0,522.5,406.0 L570.5,406.0" stroke="#7f1699" stroke-width="4.0" fill="none" stroke-linecap="round" stroke-linejoin="round" />
<path d="M442.0,389.11651689888373 L472.5,389.11651689888373 Q482.5,389.11651689888373,488.5,397.11651689888373 L506.5,421.11651689888373 Q512.5,429.11651689888373,522.5,429.11651689888373 L731.0,429.11651689888373" stroke="#a21cc3" stroke-width="4.0" fill="none" stroke-linecap="round" stroke-linejoin="round" />
<path d="M442.0,386.11651689888373 L472.5,386.11651689888373 Q482.5,386.11651689888373,486.63198297775364,377.01010615306546 L508.36801702224636,329.10641074581827 Q512.5,320.0,522.5,320.0 L570.5,320.0" stroke="#2196F3" stroke-width="4.0" fill="none" stroke-linecap="round" stroke-linejoin="round" />
<path d="M442.0,386.11651689888373 L472.5,386.11651689888373 Q482.5,386.11651689888373,490.04237411052236,379.5504988683784 L504.95762588947764,366.56601803050535 Q512.5,360.0,522.5,360.0 L570.5,360.0" stroke="#2196F3" stroke-width="4.0" fill="none" stroke-linecap="round" stroke-linejoin="round" />
<path d="M1366.5,372.0 L1426.5,372.0 Q1436.5,372.0,1442.5,364.0 L1460.5,340.0 Q1466.5,332.0,1476.5,332.0 L1502.5,332.0" stroke="#7f1699" stroke-width="4.0" fill="none" stroke-linecap="round" stroke-linejoin="round" />
<path d="M917.0,372.0 L952.0,372.0 Q962.0,372.0,969.5423741105224,378.56601803050535 L984.4576258894776,391.5504988683784 Q992.0,398.11651689888373,1002.0,398.11651689888373 L1216.5,398.11651689888373" stroke="#7f1699" stroke-width="4.0" fill="none" stroke-linecap="round" stroke-linejoin="round" />
<path d="M917.0,372.0 L1366.5,372.0" stroke="#7f1699" stroke-width="4.0" stroke-linecap="round" />
<path d="M831.0,352.0 L836.0,352.0 Q846.0,352.0,854.3205029433784,357.5470019622523 L867.6794970566216,366.4529980377477 Q876.0,372.0,886.0,372.0 L917.0,372.0" stroke="#7f1699" stroke-width="4.0" fill="none" stroke-linecap="round" stroke-linejoin="round" />
<path d="M831.0,349.0 L836.0,349.0 Q846.0,349.0,854.3205029433784,343.4529980377477 L867.6794970566216,334.5470019622523 Q876.0,329.0,886.0,329.0 L917.0,329.0" stroke="#a21cc3" stroke-width="4.0" fill="none" stroke-linecap="round" stroke-linejoin="round" />
<path d="M1216.5,345.88348310111627 L1426.5,345.88348310111627 Q1436.5,345.88348310111627,1445.575292427848,341.6835941324591 L1457.424707572152,336.19988896865715 Q1466.5,332.0,1476.5,332.0 L1502.5,332.0" stroke="#7f1699" stroke-width="4.0" fill="none" stroke-linecap="round" stroke-linejoin="round" />
<path d="M1022.0,332.0 L1061.5,332.0 Q1071.5,332.0,1075.6319829777535,341.10641074581827 L1097.3680170222465,389.01010615306546 Q1101.5,398.11651689888373,1111.5,398.11651689888373 L1216.5,398.11651689888373" stroke="#7f1699" stroke-width="4.0" fill="none" stroke-linecap="round" stroke-linejoin="round" />
<path d="M1022.0,332.0 L1061.5,332.0 Q1071.5,332.0,1077.5,340.0 L1095.5,364.0 Q1101.5,372.0,1111.5,372.0 L1366.5,372.0" stroke="#7f1699" stroke-width="4.0" fill="none" stroke-linecap="round" stroke-linejoin="round" />
<path d="M1022.0,332.0 L1061.5,332.0 Q1071.5,332.0,1080.575292427848,336.19988896865715 L1092.424707572152,341.6835941324591 Q1101.5,345.88348310111627,1111.5,345.88348310111627 L1216.5,345.88348310111627" stroke="#7f1699" stroke-width="4.0" fill="none" stroke-linecap="round" stroke-linejoin="round" />
<path d="M917.0,329.0 L1022.0,329.0" stroke="#a21cc3" stroke-width="4.0" stroke-linecap="round" />
<path d="M1022.0,329.0 L1502.5,329.0" stroke="#a21cc3" stroke-width="4.0" stroke-linecap="round" />
<path d="M1502.5,329.0 L1552.5,329.0" stroke="#a21cc3" stroke-width="4.0" stroke-linecap="round" />
<path d="M1552.5,329.0 L1581.0,329.0 Q1591.0,329.0,1591.0,319.0 L1591.0,139.0 Q1591.0,126.0,1604.0,126.0 L1632.5,126.0" stroke="#a21cc3" stroke-width="4.0" fill="none" stroke-linecap="round" stroke-linejoin="round" />
<path d="M420.5,206.0 L480.5,206.0" stroke="#e5c836" stroke-width="4.0" stroke-linecap="round" />
<path d="M480.5,206.0 L500.5,206.0 Q510.5,206.0,519.5752924278478,201.80011103134288 L531.4247075721522,196.31640586754085 Q540.5,192.11651689888373,550.5,192.11651689888373 L603.5,192.11651689888373" stroke="#e5c836" stroke-width="4.0" fill="none" stroke-linecap="round" stroke-linejoin="round" />
<path d="M670.5,192.11651689888376 L680.5,192.11651689888376" stroke="#e5c836" stroke-width="4.0" stroke-linecap="round" />
<path d="M680.5,192.11651689888376 L831.0,189.11651689888376" stroke="#e5c836" stroke-width="4.0" stroke-linecap="round" />
<path d="M603.5,192.11651689888373 L670.5,192.11651689888376" stroke="#e5c836" stroke-width="4.0" stroke-linecap="round" />
<path d="M831.0,189.11651689888376 L836.0,189.11651689888376 Q846.0,189.11651689888376,853.5423741105224,182.55049886837838 L868.4576258894776,169.56601803050538 Q876.0,163.0,886.0,163.0 L917.0,163.0" stroke="#e5c836" stroke-width="4.0" fill="none" stroke-linecap="round" stroke-linejoin="round" />
<path d="M670.5,189.11651689888376 L680.5,189.11651689888376" stroke="#e5e536" stroke-width="4.0" stroke-linecap="round" />
<path d="M680.5,189.11651689888376 L831.0,186.11651689888376" stroke="#e5e536" stroke-width="4.0" stroke-linecap="round" />
<path d="M680.5,189.11651689888376 L683.5,189.11651689888376 Q693.5,189.11651689888376,693.5,199.11651689888376 L693.5,819.1165168988837 Q693.5,829.1165168988837,703.5,829.1165168988837 L831.0,829.1165168988837" stroke="#e5e536" stroke-width="4.0" fill="none" stroke-linecap="round" stroke-linejoin="round" />
<path d="M250.0,189.11651689888373 L255.0,189.11651689888373 Q265.0,189.11651689888373,271.0,181.11651689888373 L289.0,157.11651689888373 Q295.0,149.11651689888373,305.0,149.11651689888373 L310.0,149.11651689888373" stroke="#e5e536" stroke-width="4.0" fill="none" stroke-linecap="round" stroke-linejoin="round" />
<path d="M603.5,189.11651689888373 L670.5,189.11651689888376" stroke="#e5e536" stroke-width="4.0" stroke-linecap="round" />
<path d="M603.5,189.11651689888373 L670.5,189.11651689888376" stroke="#e5e536" stroke-width="4.0" stroke-linecap="round" />
<path d="M831.0,186.11651689888376 L836.0,186.11651689888376 Q846.0,186.11651689888376,850.1319829777536,177.0101061530655 L871.8680170222464,129.10641074581827 Q876.0,120.0,886.0,120.0 L917.0,120.0" stroke="#e5e536" stroke-width="4.0" fill="none" stroke-linecap="round" stroke-linejoin="round" />
<path d="M917.0,163.0 L1011.5,163.0 Q1021.5,163.0,1027.5,155.0 L1045.5,131.0 Q1051.5,123.0,1061.5,123.0 L1066.5,123.0" stroke="#e5c836" stroke-width="4.0" fill="none" stroke-linecap="round" stroke-linejoin="round" />
<path d="M310.0,152.11651689888373 L322.5,152.11651689888373 Q332.5,152.11651689888373,337.36444788620463,160.8536300813027 L357.63555211379537,197.26288681758103 Q362.5,206.0,372.5,206.0 L420.5,206.0" stroke="#e5c836" stroke-width="4.0" fill="none" stroke-linecap="round" stroke-linejoin="round" />
<path d="M310.0,149.11651689888373 L322.5,149.11651689888373 Q332.5,149.11651689888373,338.5,157.11651689888373 L356.5,181.11651689888373 Q362.5,189.11651689888373,372.5,189.11651689888373 L603.5,189.11651689888373" stroke="#e5e536" stroke-width="4.0" fill="none" stroke-linecap="round" stroke-linejoin="round" />
<path d="M310.0,146.11651689888373 L322.5,146.11651689888373 Q332.5,146.11651689888373,340.04237411052236,139.55049886837836 L354.95762588947764,126.56601803050538 Q362.5,120.0,372.5,120.0 L420.5,120.0" stroke="#2196F3" stroke-width="4.0" fill="none" stroke-linecap="round" stroke-linejoin="round" />
<path d="M310.0,146.11651689888373 L322.5,146.11651689888373 Q332.5,146.11651689888373,341.57529242784784,150.31640586754085 L353.42470757215216,155.80011103134288 Q362.5,160.0,372.5,160.0 L420.5,160.0" stroke="#2196F3" stroke-width="4.0" fill="none" stroke-linecap="round" stroke-linejoin="round" />
<path d="M110.0,129.0 L160.0,129.0" stroke="#c64b1a" stroke-width="4.0" stroke-linecap="round" />
<path d="M1632.5,129.0 L1682.5,129.0" stroke="#c64b1a" stroke-width="4.0" stroke-linecap="round" />
<path d="M160.0,129.0 L170.0,129.0" stroke="#c64b1a" stroke-width="4.0" stroke-linecap="round" />
<path d="M170.0,129.0 L176.0,129.0 Q186.0,129.0,186.0,139.0 L186.0,695.1165168988837 Q186.0,709.1165168988837,200.0,709.1165168988837 L200.0,709.1165168988837" stroke="#c64b1a" stroke-width="4.0" fill="none" stroke-linecap="round" stroke-linejoin="round" />
<path d="M110.0,126.0 L160.0,126.0" stroke="#7f1699" stroke-width="4.0" stroke-linecap="round" />
<path d="M1632.5,126.0 L1682.5,126.0" stroke="#a21cc3" stroke-width="4.0" stroke-linecap="round" />
<path d="M160.0,126.0 L170.0,126.0" stroke="#7f1699" stroke-width="4.0" stroke-linecap="round" />
<path d="M170.0,126.0 L176.0,126.0 Q189.0,126.0,189.0,139.0 L189.0,441.11651689888373 Q189.0,452.11651689888373,200.0,452.11651689888373 L200.0,452.11651689888373" stroke="#7f1699" stroke-width="4.0" fill="none" stroke-linecap="round" stroke-linejoin="round" />
<path d="M200.0,123.0 L205.0,123.0 Q215.0,123.0,217.8953919619885,132.5716615791853 L232.1046080380115,179.54485531969843 Q235.0,189.11651689888373,245.0,189.11651689888373 L250.0,189.11651689888373" stroke="#e5e536" stroke-width="4.0" fill="none" stroke-linecap="round" stroke-linejoin="round" />
<path d="M110.0,123.0 L160.0,123.0" stroke="#a21cc3" stroke-width="4.0" stroke-linecap="round" />
<path d="M1632.5,123.0 L1682.5,123.0" stroke="#e5c836" stroke-width="4.0" stroke-linecap="round" />
<path d="M160.0,123.0 L170.0,123.0" stroke="#a21cc3" stroke-width="4.0" stroke-linecap="round" />
<path d="M170.0,123.0 L176.0,123.0 Q192.0,123.0,192.0,139.0 L192.0,441.11651689888373 Q192.0,449.11651689888373,200.0,449.11651689888373 L200.0,449.11651689888373" stroke="#a21cc3" stroke-width="4.0" fill="none" stroke-linecap="round" stroke-linejoin="round" />
<path d="M1066.5,123.0 L1632.5,123.0" stroke="#e5c836" stroke-width="4.0" stroke-linecap="round" />
<path d="M917.0,120.0 L977.0,120.0" stroke="#e5e536" stroke-width="4.0" stroke-linecap="round" />
<path d="M110.0,120.0 L160.0,120.0" stroke="#e5e536" stroke-width="4.0" stroke-linecap="round" />
<path d="M977.0,120.0 L1066.5,120.0" stroke="#e5e536" stroke-width="4.0" stroke-linecap="round" />
<path d="M1632.5,120.0 L1682.5,120.0" stroke="#e5e536" stroke-width="4.0" stroke-linecap="round" />
<path d="M160.0,120.0 L170.0,120.0" stroke="#e5e536" stroke-width="4.0" stroke-linecap="round" />
<path d="M170.0,120.0 L200.0,123.0" stroke="#e5e536" stroke-width="4.0" stroke-linecap="round" />
<path d="M1066.5,120.0 L1632.5,120.0" stroke="#e5e536" stroke-width="4.0" stroke-linecap="round" />
<rect x="104.0" y="114.0" width="12.0" height="21.0" rx="6.0" ry="6.0" fill="#ffffff" stroke="#333333" stroke-width="2.0" />
<rect x="244.0" y="183.11651689888373" width="12.0" height="12.0" rx="6.0" ry="6.0" fill="#ffffff" stroke="#333333" stroke-width="2.0" />
<rect x="304.0" y="140.11651689888373" width="12.0" height="18.0" rx="6.0" ry="6.0" fill="#ffffff" stroke="#333333" stroke-width="2.0" />
<rect x="414.5" y="114.0" width="12.0" height="12.0" rx="6.0" ry="6.0" fill="#ffffff" stroke="#333333" stroke-width="2.0" />
<rect x="414.5" y="154.0" width="12.0" height="12.0" rx="6.0" ry="6.0" fill="#ffffff" stroke="#333333" stroke-width="2.0" />
<rect x="597.5" y="183.11651689888373" width="12.0" height="15.0" rx="6.0" ry="6.0" fill="#ffffff" stroke="#333333" stroke-width="2.0" />
<rect x="414.5" y="200.0" width="12.0" height="12.0" rx="6.0" ry="6.0" fill="#ffffff" stroke="#333333" stroke-width="2.0" />
<rect x="474.5" y="200.0" width="12.0" height="12.0" rx="6.0" ry="6.0" fill="#ffffff" stroke="#333333" stroke-width="2.0" />
<rect x="911.0" y="114.0" width="12.0" height="12.0" rx="6.0" ry="6.0" fill="#ffffff" stroke="#333333" stroke-width="2.0" />
<rect x="971.0" y="114.0" width="12.0" height="12.0" rx="6.0" ry="6.0" fill="#ffffff" stroke="#333333" stroke-width="2.0" />
<rect x="911.0" y="157.0" width="12.0" height="12.0" rx="6.0" ry="6.0" fill="#ffffff" stroke="#333333" stroke-width="2.0" />
<rect x="280.0" y="466.11651689888373" width="12.0" height="12.0" rx="6.0" ry="6.0" fill="#ffffff" stroke="#333333" stroke-width="2.0" />
<rect x="436.0" y="380.11651689888373" width="12.0" height="18.0" rx="6.0" ry="6.0" fill="#ffffff" stroke="#333333" stroke-width="2.0" />
<rect x="376.0" y="423.11651689888373" width="12.0" height="15.0" rx="6.0" ry="6.0" fill="#ffffff" stroke="#333333" stroke-width="2.0" />
<rect x="564.5" y="314.0" width="12.0" height="12.0" rx="6.0" ry="6.0" fill="#ffffff" stroke="#333333" stroke-width="2.0" />
<rect x="564.5" y="354.0" width="12.0" height="12.0" rx="6.0" ry="6.0" fill="#ffffff" stroke="#333333" stroke-width="2.0" />
<rect x="564.5" y="400.0" width="12.0" height="12.0" rx="6.0" ry="6.0" fill="#ffffff" stroke="#333333" stroke-width="2.0" />
<rect x="624.5" y="400.0" width="12.0" height="12.0" rx="6.0" ry="6.0" fill="#ffffff" stroke="#333333" stroke-width="2.0" />
<rect x="725.0" y="423.11651689888373" width="12.0" height="15.0" rx="6.0" ry="6.0" fill="#ffffff" stroke="#333333" stroke-width="2.0" />
<rect x="911.0" y="323.0" width="12.0" height="12.0" rx="6.0" ry="6.0" fill="#ffffff" stroke="#333333" stroke-width="2.0" />
<rect x="911.0" y="366.0" width="12.0" height="12.0" rx="6.0" ry="6.0" fill="#ffffff" stroke="#333333" stroke-width="2.0" />
<rect x="1016.0" y="323.0" width="12.0" height="15.0" rx="6.0" ry="6.0" fill="#ffffff" stroke="#333333" stroke-width="2.0" />
<rect x="1210.5" y="392.11651689888373" width="12.0" height="12.0" rx="6.0" ry="6.0" fill="#ffffff" stroke="#333333" stroke-width="2.0" />
<rect x="1210.5" y="339.88348310111627" width="12.0" height="12.0" rx="6.0" ry="6.0" fill="#ffffff" stroke="#333333" stroke-width="2.0" />
<rect x="1360.5" y="366.0" width="12.0" height="12.0" rx="6.0" ry="6.0" fill="#ffffff" stroke="#333333" stroke-width="2.0" />
<rect x="1496.5" y="323.0" width="12.0" height="15.0" rx="6.0" ry="6.0" fill="#ffffff" stroke="#333333" stroke-width="2.0" />
<rect x="226.5" y="703.1165168988837" width="12.0" height="12.0" rx="6.0" ry="6.0" fill="#ffffff" stroke="#333333" stroke-width="2.0" />
<rect x="304.0" y="660.1165168988837" width="12.0" height="18.0" rx="6.0" ry="6.0" fill="#ffffff" stroke="#333333" stroke-width="2.0" />
<rect x="420.5" y="580.1165168988837" width="12.0" height="12.0" rx="6.0" ry="6.0" fill="#ffffff" stroke="#333333" stroke-width="2.0" />
<rect x="420.5" y="626.1165168988837" width="12.0" height="12.0" rx="6.0" ry="6.0" fill="#ffffff" stroke="#333333" stroke-width="2.0" />
<rect x="480.5" y="626.1165168988837" width="12.0" height="12.0" rx="6.0" ry="6.0" fill="#ffffff" stroke="#333333" stroke-width="2.0" />
<rect x="594.5" y="703.1165168988837" width="12.0" height="15.0" rx="6.0" ry="6.0" fill="#ffffff" stroke="#333333" stroke-width="2.0" />
<rect x="911.0" y="598.1165168988837" width="12.0" height="12.0" rx="6.0" ry="6.0" fill="#ffffff" stroke="#333333" stroke-width="2.0" />
<rect x="911.0" y="641.1165168988837" width="12.0" height="12.0" rx="6.0" ry="6.0" fill="#ffffff" stroke="#333333" stroke-width="2.0" />
<rect x="1016.0" y="598.1165168988837" width="12.0" height="15.0" rx="6.0" ry="6.0" fill="#ffffff" stroke="#333333" stroke-width="2.0" />
<rect x="1170.5" y="641.1165168988837" width="12.0" height="12.0" rx="6.0" ry="6.0" fill="#ffffff" stroke="#333333" stroke-width="2.0" />
<rect x="1170.5" y="681.1165168988837" width="12.0" height="12.0" rx="6.0" ry="6.0" fill="#ffffff" stroke="#333333" stroke-width="2.0" />
<rect x="1266.5" y="598.1165168988837" width="12.0" height="15.0" rx="6.0" ry="6.0" fill="#ffffff" stroke="#333333" stroke-width="2.0" />
<rect x="875.0" y="820.1165168988837" width="12.0" height="21.0" rx="6.0" ry="6.0" fill="#ffffff" stroke="#333333" stroke-width="2.0" />
<rect x="935.0" y="820.1165168988837" width="12.0" height="12.0" rx="6.0" ry="6.0" fill="#ffffff" stroke="#333333" stroke-width="2.0" />
<rect x="1676.5" y="114.0" width="12.0" height="21.0" rx="6.0" ry="6.0" fill="#ffffff" stroke="#333333" stroke-width="2.0" />
<text x="881.0" y="846.1165168988837" font-size="14.0" fill="#333333" font-family="'Helvetica Neue', Helvetica, Arial, sans-serif" font-weight="bold" text-anchor="middle" dominant-baseline="hanging">Kraken2</text>
<text x="250.0" y="200.11651689888373" font-size="14.0" fill="#333333" font-family="'Helvetica Neue', Helvetica, Arial, sans-serif" font-weight="bold" text-anchor="middle" dominant-baseline="hanging">cat fastq</text>
<text x="917.0" y="131.0" font-size="14.0" fill="#333333" font-family="'Helvetica Neue', Helvetica, Arial, sans-serif" font-weight="bold" text-anchor="middle" dominant-baseline="hanging">Shovill</text>
<text x="917.0" y="315.0" font-size="14.0" fill="#333333" font-family="'Helvetica Neue', Helvetica, Arial, sans-serif" font-weight="bold" text-anchor="middle" dominant-baseline="auto">Flye</text>
<text x="286.0" y="483.11651689888373" font-size="14.0" fill="#333333" font-family="'Helvetica Neue', Helvetica, Arial, sans-serif" font-weight="bold" text-anchor="middle" dominant-baseline="hanging">Porechop ABI</text>
<text x="917.0" y="358.0" font-size="14.0" fill="#333333" font-family="'Helvetica Neue', Helvetica, Arial, sans-serif" font-weight="bold" text-anchor="middle" dominant-baseline="auto">Autocycler</text>
<text x="232.5" y="720.1165168988837" font-size="14.0" fill="#333333" font-family="'Helvetica Neue', Helvetica, Arial, sans-serif" font-weight="bold" text-anchor="middle" dominant-baseline="hanging">cat fastq</text>
<text x="917.0" y="615.1165168988837" font-size="14.0" fill="#333333" font-family="'Helvetica Neue', Helvetica, Arial, sans-serif" font-weight="bold" text-anchor="middle" dominant-baseline="hanging">Flye</text>
<text x="917.0" y="658.1165168988837" font-size="14.0" fill="#333333" font-family="'Helvetica Neue', Helvetica, Arial, sans-serif" font-weight="bold" text-anchor="middle" dominant-baseline="hanging">Autocycler</text>
<text x="110.0" y="140.0" font-size="14.0" fill="#333333" font-family="'Helvetica Neue', Helvetica, Arial, sans-serif" font-weight="bold" text-anchor="middle" dominant-baseline="hanging">Input TSV</text>
<text x="917.0" y="174.0" font-size="14.0" fill="#333333" font-family="'Helvetica Neue', Helvetica, Arial, sans-serif" font-weight="bold" text-anchor="middle" dominant-baseline="hanging">Unicycler</text>
<text x="1682.5" y="140.0" font-size="14.0" fill="#333333" font-family="'Helvetica Neue', Helvetica, Arial, sans-serif" font-weight="bold" text-anchor="middle" dominant-baseline="hanging">Assemblies</text>
<text x="310.0" y="132.11651689888373" font-size="14.0" fill="#333333" font-family="'Helvetica Neue', Helvetica, Arial, sans-serif" font-weight="bold" text-anchor="middle" dominant-baseline="auto">fastP</text>
<text x="941.0" y="812.1165168988837" font-size="14.0" fill="#333333" font-family="'Helvetica Neue', Helvetica, Arial, sans-serif" font-weight="bold" text-anchor="middle" dominant-baseline="auto">Bracken2</text>
<text x="977.0" y="106.0" font-size="14.0" fill="#333333" font-family="'Helvetica Neue', Helvetica, Arial, sans-serif" font-weight="bold" text-anchor="middle" dominant-baseline="auto">Shovill Fix Contigs</text>
<text x="382.0" y="443.11651689888373" font-size="14.0" fill="#333333" font-family="'Helvetica Neue', Helvetica, Arial, sans-serif" font-weight="bold" text-anchor="middle" dominant-baseline="hanging">Chopper</text>
<text x="1022.0" y="343.0" font-size="14.0" fill="#333333" font-family="'Helvetica Neue', Helvetica, Arial, sans-serif" font-weight="bold" text-anchor="middle" dominant-baseline="hanging">Plassembler</text>
<text x="310.0" y="652.1165168988837" font-size="14.0" fill="#333333" font-family="'Helvetica Neue', Helvetica, Arial, sans-serif" font-weight="bold" text-anchor="middle" dominant-baseline="auto">FastPlong</text>
<text x="1022.0" y="590.1165168988837" font-size="14.0" fill="#333333" font-family="'Helvetica Neue', Helvetica, Arial, sans-serif" font-weight="bold" text-anchor="middle" dominant-baseline="auto">Plassembler</text>
<text x="420.5" y="106.0" font-size="14.0" fill="#333333" font-family="'Helvetica Neue', Helvetica, Arial, sans-serif" font-weight="bold" text-anchor="middle" dominant-baseline="auto">fastQC</text>
<text x="426.5" y="572.1165168988837" font-size="14.0" fill="#333333" font-family="'Helvetica Neue', Helvetica, Arial, sans-serif" font-weight="bold" text-anchor="middle" dominant-baseline="auto">FastQC</text>
<text x="420.5" y="171.0" font-size="14.0" fill="#333333" font-family="'Helvetica Neue', Helvetica, Arial, sans-serif" font-weight="bold" text-anchor="middle" dominant-baseline="hanging">ConfindR</text>
<text x="442.0" y="372.11651689888373" font-size="14.0" fill="#333333" font-family="'Helvetica Neue', Helvetica, Arial, sans-serif" font-weight="bold" text-anchor="middle" dominant-baseline="auto">cat fastq</text>
<text x="426.5" y="643.1165168988837" font-size="14.0" fill="#333333" font-family="'Helvetica Neue', Helvetica, Arial, sans-serif" font-weight="bold" text-anchor="middle" dominant-baseline="hanging">KMC</text>
<text x="420.5" y="217.0" font-size="14.0" fill="#333333" font-family="'Helvetica Neue', Helvetica, Arial, sans-serif" font-weight="bold" text-anchor="middle" dominant-baseline="hanging">KMC</text>
<text x="1216.5" y="331.88348310111627" font-size="14.0" fill="#333333" font-family="'Helvetica Neue', Helvetica, Arial, sans-serif" font-weight="bold" text-anchor="middle" dominant-baseline="auto">Homopolish</text>
<text x="1216.5" y="387.11651689888373" font-size="14.0" fill="#333333" font-family="'Helvetica Neue', Helvetica, Arial, sans-serif" font-weight="bold" text-anchor="middle" dominant-baseline="auto">Medaka</text>
<text x="1176.5" y="657.5165168988837" font-size="14.0" fill="#333333" font-family="'Helvetica Neue', Helvetica, Arial, sans-serif" font-weight="bold" text-anchor="middle" dominant-baseline="hanging">Homopolish</text>
<text x="1176.5" y="698.1165168988837" font-size="14.0" fill="#333333" font-family="'Helvetica Neue', Helvetica, Arial, sans-serif" font-weight="bold" text-anchor="middle" dominant-baseline="hanging">Polypolish</text>
<text x="570.5" y="306.0" font-size="14.0" fill="#333333" font-family="'Helvetica Neue', Helvetica, Arial, sans-serif" font-weight="bold" text-anchor="middle" dominant-baseline="auto">ConfindR</text>
<text x="570.5" y="371.0" font-size="14.0" fill="#333333" font-family="'Helvetica Neue', Helvetica, Arial, sans-serif" font-weight="bold" text-anchor="middle" dominant-baseline="hanging">Nanoplot</text>
<text x="486.5" y="618.1165168988837" font-size="14.0" fill="#333333" font-family="'Helvetica Neue', Helvetica, Arial, sans-serif" font-weight="bold" text-anchor="middle" dominant-baseline="auto">Rasusa</text>
<text x="485.6" y="192.0" font-size="14.0" fill="#333333" font-family="'Helvetica Neue', Helvetica, Arial, sans-serif" font-weight="bold" text-anchor="middle" dominant-baseline="auto">Rasusa</text>
<text x="570.5" y="417.0" font-size="14.0" fill="#333333" font-family="'Helvetica Neue', Helvetica, Arial, sans-serif" font-weight="bold" text-anchor="middle" dominant-baseline="hanging">KMC</text>
<text x="1366.5" y="383.0" font-size="14.0" fill="#333333" font-family="'Helvetica Neue', Helvetica, Arial, sans-serif" font-weight="bold" text-anchor="middle" dominant-baseline="hanging">Polypolish</text>
<text x="1272.5" y="590.1165168988837" font-size="14.0" fill="#333333" font-family="'Helvetica Neue', Helvetica, Arial, sans-serif" font-weight="bold" text-anchor="middle" dominant-baseline="auto">DNAAPLER</text>
<text x="603.5" y="203.11651689888373" font-size="14.0" fill="#333333" font-family="'Helvetica Neue', Helvetica, Arial, sans-serif" font-weight="bold" text-anchor="middle" dominant-baseline="hanging">Illumina Reads</text>
<text x="635.6" y="392.0" font-size="14.0" fill="#333333" font-family="'Helvetica Neue', Helvetica, Arial, sans-serif" font-weight="bold" text-anchor="middle" dominant-baseline="auto">Rasusa</text>
<text x="1502.5" y="315.0" font-size="14.0" fill="#333333" font-family="'Helvetica Neue', Helvetica, Arial, sans-serif" font-weight="bold" text-anchor="middle" dominant-baseline="auto">DNAAPLER</text>
<text x="600.5" y="723.1165168988837" font-size="14.0" fill="#333333" font-family="'Helvetica Neue', Helvetica, Arial, sans-serif" font-weight="bold" text-anchor="middle" dominant-baseline="hanging">Pacbio Reads</text>
<text x="731.0" y="443.11651689888373" font-size="14.0" fill="#333333" font-family="'Helvetica Neue', Helvetica, Arial, sans-serif" font-weight="bold" text-anchor="middle" dominant-baseline="hanging">ONT Reads</text>
<rect x="60.0" y="898.1165168988837" width="262.4" height="216.0" rx="6" ry="6" fill="rgba(255, 255, 255, 0.8)" />
<path d="M72.0,922.1165168988837 L96.0,922.1165168988837" stroke="#1e9b05" stroke-width="4.0" stroke-linecap="round" />
<text x="108.0" y="922.1165168988837" font-size="16.0" fill="#333333" font-family="'Helvetica Neue', Helvetica, Arial, sans-serif" dy="0.3em">Main</text>
<path d="M72.0,946.1165168988837 L96.0,946.1165168988837" stroke="#2196F3" stroke-width="4.0" stroke-linecap="round" />
<text x="108.0" y="946.1165168988837" font-size="16.0" fill="#333333" font-family="'Helvetica Neue', Helvetica, Arial, sans-serif" dy="0.3em">Quality Control</text>
<path d="M72.0,970.1165168988837 L96.0,970.1165168988837" stroke="#e5e536" stroke-width="4.0" stroke-linecap="round" />
<text x="108.0" y="970.1165168988837" font-size="16.0" fill="#333333" font-family="'Helvetica Neue', Helvetica, Arial, sans-serif" dy="0.3em">Illumina processing</text>
<path d="M72.0,994.1165168988837 L96.0,994.1165168988837" stroke="#a21cc3" stroke-width="4.0" stroke-linecap="round" />
<text x="108.0" y="994.1165168988837" font-size="16.0" fill="#333333" font-family="'Helvetica Neue', Helvetica, Arial, sans-serif" dy="0.3em">Nanopore processing</text>
<path d="M72.0,1018.1165168988837 L96.0,1018.1165168988837" stroke="#7f1699" stroke-width="4.0" stroke-linecap="round" />
<text x="108.0" y="1018.1165168988837" font-size="16.0" fill="#333333" font-family="'Helvetica Neue', Helvetica, Arial, sans-serif" dy="0.3em">Nanopore alt processing</text>
<path d="M72.0,1042.1165168988837 L96.0,1042.1165168988837" stroke="#e5c836" stroke-width="4.0" stroke-linecap="round" />
<text x="108.0" y="1042.1165168988837" font-size="16.0" fill="#333333" font-family="'Helvetica Neue', Helvetica, Arial, sans-serif" dy="0.3em">Illumina alt processing</text>
<path d="M72.0,1066.1165168988837 L96.0,1066.1165168988837" stroke="#c64b1a" stroke-width="4.0" stroke-linecap="round" />
<text x="108.0" y="1066.1165168988837" font-size="16.0" fill="#333333" font-family="'Helvetica Neue', Helvetica, Arial, sans-serif" dy="0.3em">Pacbio processing</text>
<path d="M72.0,1090.1165168988837 L96.0,1090.1165168988837" stroke="#963914" stroke-width="4.0" stroke-linecap="round" />
<text x="108.0" y="1090.1165168988837" font-size="16.0" fill="#333333" font-family="'Helvetica Neue', Helvetica, Arial, sans-serif" dy="0.3em">Pacbio alt processing</text>
<text x="1762.0" y="1130.0" font-size="8" fill="rgba(150, 150, 150, 0.6)" font-family="'Helvetica Neue', Helvetica, Arial, sans-serif" text-anchor="end">created with nf-metro v0.6.1</text>
</svg>
